<svg width="45" height="45" viewBox="0 0 45 45" fill="none" xmlns="http://www.w3.org/2000/svg">
<path d="M22.5 0C10.0733 0 0 10.0733 0 22.5C0 34.9267 10.0733 45 22.5 45C34.9267 45 45 34.9267 45 22.5C45 10.0733 34.9267 0 22.5 0ZM29.9658 32.4436C29.612 32.7956 29.2409 33.1648 28.9397 33.4669C28.6684 33.7391 28.477 34.0748 28.3799 34.4386C28.2429 34.9521 28.1323 35.4711 27.9472 35.9692L26.3695 40.2197C25.1211 40.4918 23.8291 40.6452 22.5 40.6452V38.1611C22.6533 37.0161 21.8069 34.8714 20.4469 33.5114C19.9025 32.967 19.5968 32.2285 19.5968 31.4583V28.5541C19.5968 27.4981 19.0279 26.5273 18.1034 26.0165C16.7997 25.2953 14.9453 24.2873 13.6751 23.6477C12.6336 23.1233 11.6701 22.4555 10.8036 21.6744L10.731 21.6091C10.1114 21.0498 9.56133 20.418 9.09254 19.7274C8.24153 18.4781 6.85524 16.4232 5.95433 15.0877C7.81149 10.9597 11.1584 7.64456 15.3172 5.84365L17.4956 6.93327C18.4609 7.41593 19.5968 6.71462 19.5968 5.63498V4.60978C20.3217 4.49274 21.0593 4.41835 21.8096 4.39022L24.3771 6.95776C24.9442 7.5248 24.9442 8.44385 24.3771 9.01089L23.9516 9.43548L23.0135 10.3736C22.7304 10.6567 22.7304 11.1166 23.0135 11.3997L23.439 11.8252C23.7221 12.1083 23.7221 12.5682 23.439 12.8513L22.7132 13.5771C22.5769 13.7131 22.3922 13.7895 22.1997 13.7894H21.3841C21.1954 13.7894 21.0139 13.8629 20.8778 13.9954L19.9778 14.8709C19.8675 14.9783 19.7942 15.118 19.7684 15.2698C19.7426 15.4216 19.7658 15.5777 19.8345 15.7155L21.2489 18.5453C21.4902 19.0279 21.1391 19.5959 20.6002 19.5959H20.0885C19.9134 19.5959 19.7447 19.5324 19.6131 19.418L18.7712 18.6868C18.5806 18.5215 18.3504 18.4087 18.103 18.3594C17.8557 18.31 17.5997 18.326 17.3604 18.4055L14.5325 19.3482C14.3166 19.4202 14.1288 19.5583 13.9958 19.7429C13.8627 19.9276 13.7912 20.1494 13.7912 20.377C13.7912 20.788 14.0235 21.1627 14.3909 21.3469L15.3962 21.8495C16.2499 22.2768 17.1916 22.4991 18.1461 22.4991C19.1005 22.4991 20.1956 24.975 21.0493 25.4023H27.1052C27.8755 25.4023 28.6131 25.7081 29.1584 26.2524L30.4004 27.4945C30.9193 28.0135 31.2107 28.7175 31.2106 29.4514C31.2104 30.0076 31.1003 30.5582 30.8867 31.0717C30.6731 31.5852 30.3602 32.0514 29.9658 32.4436ZM37.8327 24.1557C37.3074 24.0242 36.8492 23.7021 36.5489 23.2512L34.9176 20.8043C34.679 20.4468 34.5516 20.0266 34.5516 19.5968C34.5516 19.1669 34.679 18.7467 34.9176 18.3892L36.695 15.7237C36.9054 15.4089 37.194 15.153 37.5333 14.9843L38.7109 14.3955C39.9375 16.8378 40.6452 19.585 40.6452 22.5C40.6452 23.2866 40.578 24.0569 40.48 24.8171L37.8327 24.1557Z" fill="#577FE8"/>
</svg>
