<svg width="102" height="53" viewBox="0 0 102 53" fill="none" xmlns="http://www.w3.org/2000/svg">
<path d="M98.3571 45.4286H3.64286C2.67671 45.4286 1.75014 45.628 1.06697 45.983C0.3838 46.338 0 46.8194 0 47.3214L0 51.1071C0 51.6092 0.3838 52.0906 1.06697 52.4456C1.75014 52.8006 2.67671 53 3.64286 53H98.3571C99.3233 53 100.25 52.8006 100.933 52.4456C101.616 52.0906 102 51.6092 102 51.1071V47.3214C102 46.8194 101.616 46.338 100.933 45.983C100.25 45.628 99.3233 45.4286 98.3571 45.4286ZM98.3571 30.2857H3.64286C2.67671 30.2857 1.75014 30.4851 1.06697 30.8401C0.3838 31.1951 0 31.6766 0 32.1786L0 35.9643C0 36.4663 0.3838 36.9478 1.06697 37.3027C1.75014 37.6577 2.67671 37.8571 3.64286 37.8571H98.3571C99.3233 37.8571 100.25 37.6577 100.933 37.3027C101.616 36.9478 102 36.4663 102 35.9643V32.1786C102 31.6766 101.616 31.1951 100.933 30.8401C100.25 30.4851 99.3233 30.2857 98.3571 30.2857ZM98.3571 15.1429H3.64286C2.67671 15.1429 1.75014 15.3423 1.06697 15.6973C0.3838 16.0522 0 16.5337 0 17.0357L0 20.8214C0 21.3234 0.3838 21.8049 1.06697 22.1599C1.75014 22.5149 2.67671 22.7143 3.64286 22.7143H98.3571C99.3233 22.7143 100.25 22.5149 100.933 22.1599C101.616 21.8049 102 21.3234 102 20.8214V17.0357C102 16.5337 101.616 16.0522 100.933 15.6973C100.25 15.3423 99.3233 15.1429 98.3571 15.1429ZM98.3571 0H3.64286C2.67671 0 1.75014 0.199425 1.06697 0.554405C0.3838 0.909385 0 1.39084 0 1.89286L0 5.67857C0 6.18059 0.3838 6.66204 1.06697 7.01702C1.75014 7.372 2.67671 7.57143 3.64286 7.57143H98.3571C99.3233 7.57143 100.25 7.372 100.933 7.01702C101.616 6.66204 102 6.18059 102 5.67857V1.89286C102 1.39084 101.616 0.909385 100.933 0.554405C100.25 0.199425 99.3233 0 98.3571 0Z" fill="white"/>
</svg>
