<svg width="45" height="45" viewBox="0 0 45 45" fill="none" xmlns="http://www.w3.org/2000/svg">
<path d="M22.5 0C10.0706 0 0 10.0706 0 22.5C0 34.9294 10.0706 45 22.5 45C34.9294 45 45 34.9294 45 22.5C45 10.0706 34.9294 0 22.5 0ZM29.7581 15.2419C31.3639 15.2419 32.6613 16.5393 32.6613 18.1452C32.6613 19.751 31.3639 21.0484 29.7581 21.0484C28.1522 21.0484 26.8548 19.751 26.8548 18.1452C26.8548 16.5393 28.1522 15.2419 29.7581 15.2419ZM15.2419 15.2419C16.8478 15.2419 18.1452 16.5393 18.1452 18.1452C18.1452 19.751 16.8478 21.0484 15.2419 21.0484C13.6361 21.0484 12.3387 19.751 12.3387 18.1452C12.3387 16.5393 13.6361 15.2419 15.2419 15.2419ZM32.9153 30.6835C30.3296 33.7863 26.5373 35.5645 22.5 35.5645C18.4627 35.5645 14.6704 33.7863 12.0847 30.6835C10.8508 29.2046 13.0827 27.3538 14.3165 28.8236C16.3488 31.2641 19.3246 32.6522 22.5 32.6522C25.6754 32.6522 28.6512 31.255 30.6835 28.8236C31.8992 27.3538 34.1401 29.2046 32.9153 30.6835Z" fill="white"/>
</svg>
