<svg width="103" height="2" viewBox="0 0 103 2" fill="none" xmlns="http://www.w3.org/2000/svg">
<path d="M88.0655 0.248546V1.09489C88.0655 1.10352 88.4495 1.1118 89.1331 1.11791C89.8166 1.12401 90.7437 1.12744 91.7104 1.12744L99.0001 1.12744C99.9668 1.12744 100.894 1.12401 101.577 1.11791C102.261 1.1118 102.645 1.10352 102.645 1.09489V0.248546C102.645 0.239913 102.261 0.231633 101.577 0.225529C100.894 0.219424 99.9668 0.215994 99.0001 0.215994L91.7104 0.215994C90.7437 0.215994 89.8166 0.219424 89.1331 0.225529C88.4495 0.231633 88.0655 0.239913 88.0655 0.248546ZM58.9066 0.248546V1.09489C58.9066 1.10352 59.2906 1.1118 59.9742 1.11791C60.6577 1.12401 61.5848 1.12744 62.5515 1.12744L69.8412 1.12744C70.8079 1.12744 71.735 1.12401 72.4185 1.11791C73.1021 1.1118 73.4861 1.10352 73.4861 1.09489V0.671718V0.248546C73.4861 0.239913 73.1021 0.231633 72.4185 0.225529C71.735 0.219424 70.8079 0.215994 69.8412 0.215994L62.5515 0.215994C61.5848 0.215994 60.6577 0.219424 59.9742 0.225529C59.2906 0.231633 58.9066 0.239913 58.9066 0.248546ZM29.7477 0.248546V1.09489C29.7477 1.10352 30.1318 1.1118 30.8153 1.11791C31.4988 1.12401 32.4259 1.12744 33.3926 1.12744L40.6823 1.12744C41.649 1.12744 42.5761 1.12401 43.2596 1.11791C43.9432 1.1118 44.3272 1.10352 44.3272 1.09489V0.248546C44.3272 0.239913 43.9432 0.231633 43.2596 0.225529C42.5761 0.219424 41.649 0.215994 40.6823 0.215994L33.3926 0.215994C32.4259 0.215994 31.4988 0.219424 30.8153 0.225529C30.1318 0.231633 29.7477 0.239913 29.7477 0.248546ZM0.588867 0.248546L0.588867 1.09489C0.588867 1.10352 0.972878 1.1118 1.65642 1.11791C2.33997 1.12401 3.26705 1.12744 4.23373 1.12744L11.5234 1.12744C12.4901 1.12744 13.4172 1.12401 14.1007 1.11791C14.7843 1.1118 15.1683 1.10352 15.1683 1.09489V0.248546C15.1683 0.239913 14.7843 0.231633 14.1007 0.225529C13.4172 0.219424 12.4901 0.215994 11.5234 0.215994L4.23373 0.215994C3.26705 0.215994 2.33997 0.219424 1.65642 0.225529C0.972878 0.231633 0.588867 0.239913 0.588867 0.248546Z" fill="white"/>
</svg>
