<svg width="45" height="45" viewBox="0 0 45 45" fill="none" xmlns="http://www.w3.org/2000/svg">
<path d="M21.9034 11.6742L7.50059 26.9287V43.3927C7.50059 43.819 7.63228 44.2278 7.86668 44.5292C8.10108 44.8307 8.419 45 8.7505 45L17.5045 44.9709C17.8349 44.9687 18.1512 44.7985 18.3843 44.4973C18.6173 44.1961 18.7482 43.7884 18.7482 43.3635V33.7487C18.7482 33.3225 18.8798 32.9136 19.1143 32.6122C19.3487 32.3108 19.6666 32.1414 19.9981 32.1414H24.9977C25.3292 32.1414 25.6471 32.3108 25.8815 32.6122C26.1159 32.9136 26.2476 33.3225 26.2476 33.7487V43.3565C26.2471 43.568 26.279 43.7776 26.3416 43.9732C26.4042 44.1687 26.4962 44.3465 26.6123 44.4963C26.7284 44.6461 26.8664 44.7649 27.0183 44.846C27.1702 44.9271 27.333 44.9689 27.4975 44.9689L36.2484 45C36.5799 45 36.8978 44.8307 37.1322 44.5292C37.3666 44.2278 37.4983 43.819 37.4983 43.3927V26.9176L23.0986 11.6742C22.9293 11.4987 22.7184 11.403 22.501 11.403C22.2836 11.403 22.0727 11.4987 21.9034 11.6742ZM44.654 22.0424L38.1232 15.1199V1.20549C38.1232 0.885775 38.0245 0.579154 37.8487 0.353081C37.6729 0.127007 37.4344 0 37.1858 0H32.8111C32.5625 0 32.3241 0.127007 32.1483 0.353081C31.9725 0.579154 31.8737 0.885775 31.8737 1.20549V8.49972L24.8797 1.10001C24.2085 0.389755 23.3663 0.00141981 22.4971 0.00141981C21.6279 0.00141981 20.7857 0.389755 20.1145 1.10001L0.340207 22.0424C0.245283 22.1433 0.166748 22.2673 0.10909 22.4072C0.0514319 22.5471 0.0157806 22.7003 0.00417324 22.858C-0.00743416 23.0156 0.0052298 23.1747 0.0414415 23.3261C0.0776532 23.4774 0.136703 23.6181 0.215217 23.7401L2.20725 26.8543C2.28555 26.9768 2.38186 27.0781 2.49066 27.1527C2.59947 27.2272 2.71863 27.2733 2.84134 27.2886C2.96404 27.3038 3.08787 27.2877 3.20574 27.2413C3.32361 27.1949 3.4332 27.119 3.52824 27.0181L21.9034 7.55542C22.0727 7.37995 22.2836 7.28426 22.501 7.28426C22.7184 7.28426 22.9293 7.37995 23.0986 7.55542L41.4745 27.0181C41.5694 27.119 41.6788 27.195 41.7965 27.2416C41.9142 27.2881 42.0379 27.3044 42.1605 27.2895C42.2831 27.2745 42.4023 27.2287 42.5111 27.1546C42.6199 27.0804 42.7163 26.9794 42.7948 26.8573L44.7868 23.7432C44.8652 23.6204 44.924 23.479 44.9598 23.327C44.9956 23.175 45.0077 23.0153 44.9953 22.8573C44.983 22.6992 44.9465 22.5459 44.8879 22.406C44.8293 22.2662 44.7498 22.1426 44.654 22.0424Z" fill="white"/>
</svg>
