<svg width="46" height="46" viewBox="0 0 46 46" fill="none" xmlns="http://www.w3.org/2000/svg">
<path d="M45.841 22.8013C45.841 35.3886 35.641 45.5875 23.0606 45.5875C10.4803 45.5875 0.280273 35.3886 0.280273 22.8013C0.280273 10.2214 10.4803 0.0151367 23.0606 0.0151367C35.641 0.0151367 45.841 10.2214 45.841 22.8013ZM23.6719 7.54928C18.6661 7.54928 15.4733 9.65856 12.9662 13.4073C12.6414 13.893 12.75 14.548 13.2156 14.9011L16.4029 17.3185C16.881 17.6811 17.5622 17.5949 17.9337 17.1235C19.5746 15.0417 20.6998 13.8345 23.1973 13.8345C25.0739 13.8345 27.395 15.0425 27.395 16.8627C27.395 18.2387 26.2594 18.9453 24.4065 19.9844C22.2457 21.196 19.3864 22.704 19.3864 26.4765V26.844C19.3864 27.4529 19.8799 27.9466 20.4887 27.9466H25.6326C26.2414 27.9466 26.7349 27.4529 26.7349 26.844V26.7215C26.7349 24.1065 34.3761 23.9976 34.3761 16.921C34.3761 11.5918 28.8495 7.54928 23.6719 7.54928ZM23.0606 30.3355C20.7307 30.3355 18.8353 32.2314 18.8353 34.5619C18.8353 36.8924 20.7307 38.7884 23.0606 38.7884C25.3906 38.7884 27.286 36.8924 27.286 34.5619C27.286 32.2314 25.3906 30.3355 23.0606 30.3355Z" fill="white"/>
</svg>
