<svg width="91" height="92" viewBox="0 0 91 92" fill="none" xmlns="http://www.w3.org/2000/svg">
<path d="M65.1691 9.87472C60.9808 13.3105 57.1992 16.9224 53.8485 20.5504C48.3594 13.8659 41.5534 7.0852 33.8452 0.760254C14.0594 16.9901 0.0163574 38.1367 0.0163574 50.8898C0.0163574 73.5425 20.211 91.905 45.1215 91.905C70.032 91.905 90.2266 73.5425 90.2266 50.8898C90.2266 41.4069 79.7598 21.8481 65.1691 9.87472ZM61.2486 70.5162C56.8871 73.215 51.5087 74.8153 45.6974 74.8153C31.1691 74.8153 19.3471 66.3168 19.3471 52.5187C19.3471 45.6455 24.2422 39.5893 34.0043 29.243C35.3997 30.6635 53.9049 51.5556 53.9049 51.5556L65.7108 39.6498C66.5444 40.8693 67.3036 42.062 67.9801 43.2048C73.4874 52.4956 71.1637 64.3835 61.2486 70.5162Z" fill="white"/>
</svg>
